# Blender v2.78 (sub 0) OBJ File: ''
# www.blender.org
mtllib capsule3.mtl
o default.001
v 2.000000 -2.000000 -1.750000
v 2.000000 -4.000000 -1.750001
v 2.000000 -4.500000 -1.889801
v 2.000000 -4.999999 -5.672901
v 2.000000 -4.999999 -5.797901
v 2.000000 -4.499999 -5.797901
v 2.000000 -5.000000 -1.889801
v 2.000000 -4.499999 -5.672901
v 2.000000 -1.925000 -1.889800
v 2.000000 -0.275000 -1.889800
v 2.000000 -0.275000 -1.750000
v 2.000000 -1.850000 -1.750000
v 2.000000 -1.850000 1.750000
v 2.000000 -1.925000 1.889800
v 2.000000 4.750000 -1.749999
v 2.000000 5.000000 -1.889799
v 2.000000 4.750000 1.750001
v 2.000000 5.000000 1.889801
v 2.000000 -0.275000 1.750000
v 2.000000 -0.275000 1.889800
v 2.000000 -4.500001 5.744899
v 2.000000 -5.000001 5.744899
v 2.000000 -4.500000 1.889799
v 2.000000 -5.000000 1.889799
v 2.000000 -2.000001 5.494900
v 2.000000 -1.925001 5.744900
v 2.000000 -4.000001 5.494900
v 2.000000 -4.000000 1.994899
v 2.000000 -2.000000 1.994900
v 2.000000 -4.000000 1.749999
v 2.000000 -2.000000 1.750000
v 2.000000 -3.999999 -5.547901
v 2.000000 -4.000000 -2.047901
v 2.000000 -2.000000 -2.047900
v 2.000000 -1.924999 -5.672901
v 2.000000 -1.999999 -5.547901
v 2.000000 -1.850000 1.994900
v 2.000000 -1.850001 5.494900
v 2.000000 -0.350001 5.494900
v 2.000000 -0.275001 5.744900
v 2.000000 -0.350000 1.994900
v 2.000000 -0.350000 -2.047900
v 2.000000 -1.850000 -2.047900
v 2.000000 -0.274999 -5.672900
v 2.000000 -0.349999 -5.547900
v 2.000000 -1.849999 -5.547901
v 2.000000 -0.200000 1.994900
v 2.000000 -0.200001 5.494900
v 2.000000 4.750000 1.994901
v 2.000000 4.749999 5.494901
v 2.000000 4.999999 5.744901
v 2.000000 -0.199999 -5.547900
v 2.000000 -0.200000 -2.047900
v 2.000000 4.750001 -5.547899
v 2.000000 5.000001 -5.672899
v 2.000000 4.750000 -2.047899
v 2.000000 -1.924999 -5.797901
v 2.000000 -0.274999 -5.797900
v 2.000000 5.000001 -5.797899
v -2.000000 4.999999 5.744901
v -2.000000 5.000001 -5.797899
v -2.000000 -5.000001 5.744899
v -2.000000 -4.999999 -5.797901
v -1.750000 -4.000000 1.749999
v -1.750000 -2.000000 1.750000
v -1.750000 -2.000000 -1.750000
v -1.750000 -4.000000 -1.750001
v -1.750000 -1.850000 -1.750000
v -1.750000 -1.850000 1.750000
v -1.750000 4.750000 1.750001
v -1.750000 4.750000 -1.749999
v -1.750000 -3.999999 -5.547901
v -1.750000 -4.000000 -2.047901
v -1.750000 -2.000000 -2.047900
v -1.750000 -1.999999 -5.547901
v -1.750000 -1.849999 -5.547901
v -1.750000 -1.850000 -2.047900
v -1.750000 -0.350000 -2.047900
v -1.750000 -0.349999 -5.547900
v -1.750000 -0.199999 -5.547900
v -1.750000 -0.200000 -2.047900
v -1.750000 4.750000 -2.047899
v -1.750000 4.750001 -5.547899
v -1.750000 -4.000000 1.994899
v -1.750000 -4.000001 5.494900
v -1.750000 -2.000001 5.494900
v -1.750000 -2.000000 1.994900
v -1.750000 -1.850000 1.994900
v -1.750000 -1.850001 5.494900
v -1.750000 -0.350001 5.494900
v -1.750000 -0.350000 1.994900
v -1.750000 -0.200000 1.994900
v -1.750000 -0.200001 5.494900
v -1.750000 4.749999 5.494901
v -1.750000 4.750000 1.994901
vt 0.3718 0.6126
vt 0.3718 0.5221
vt 0.3784 0.4995
vt 0.5546 0.4769
vt 0.5605 0.4769
vt 0.5605 0.4995
vt 0.3784 0.4769
vt 0.5546 0.4995
vt 0.3784 0.6160
vt 0.3784 0.6907
vt 0.3718 0.6907
vt 0.3718 0.6194
vt 0.2088 0.6194
vt 0.2022 0.6160
vt 0.3718 0.9181
vt 0.3784 0.9294
vt 0.2088 0.9181
vt 0.2022 0.9294
vt 0.2088 0.6907
vt 0.2022 0.6907
vt 0.0226 0.4995
vt 0.0226 0.4769
vt 0.2022 0.4995
vt 0.2022 0.4769
vt 0.0343 0.6126
vt 0.0226 0.6160
vt 0.0343 0.5221
vt 0.1973 0.5221
vt 0.1973 0.6126
vt 0.2088 0.5221
vt 0.2088 0.6126
vt 0.5488 0.5221
vt 0.3857 0.5221
vt 0.3857 0.6126
vt 0.5546 0.6160
vt 0.5488 0.6126
vt 0.1973 0.6194
vt 0.0343 0.6194
vt 0.0343 0.6873
vt 0.0226 0.6907
vt 0.1973 0.6873
vt 0.3857 0.6873
vt 0.3857 0.6194
vt 0.5546 0.6907
vt 0.5488 0.6873
vt 0.5488 0.6194
vt 0.1973 0.6941
vt 0.0343 0.6941
vt 0.1973 0.9181
vt 0.0343 0.9181
vt 0.0226 0.9294
vt 0.5488 0.6941
vt 0.3857 0.6941
vt 0.5488 0.9181
vt 0.5546 0.9294
vt 0.3857 0.9181
vt 0.5605 0.6160
vt 0.5605 0.6907
vt 0.5605 0.9294
vt 0.5605 0.4769
vt 0.0226 0.4769
vt 0.5605 0.0243
vt 0.0226 0.0243
vt 0.9798 0.5839
vt 0.9834 0.5839
vt 0.9834 0.6960
vt 0.6505 0.6960
vt 0.6505 0.5839
vt 0.7617 0.5839
vt 0.8707 0.5839
vt 0.7071 0.8629
vt 0.7071 0.8619
vt 0.7380 0.8629
vt 0.7071 0.8319
vt 0.7380 0.7714
vt 0.7071 0.8020
vt 0.7071 0.7714
vt 0.8150 0.9225
vt 0.7996 0.9225
vt 0.8150 0.8927
vt 0.7996 0.8927
vt 0.7380 0.8899
vt 0.7649 0.8899
vt 0.7380 0.9197
vt 0.7649 0.9197
vt 0.7071 0.9224
vt 0.6917 0.9224
vt 0.7071 0.8927
vt 0.6917 0.8927
vt 0.7683 0.8498
vt 0.7413 0.8498
vt 0.7683 0.8200
vt 0.7413 0.8200
vt 0.8150 0.9205
vt 0.8150 0.8927
vt 0.8304 0.9205
vt 0.8304 0.8927
vt 0.8824 0.8332
vt 0.9093 0.8332
vt 0.8824 0.8630
vt 0.9093 0.8630
vt 0.8284 0.7714
vt 0.8573 0.7714
vt 0.8284 0.7839
vt 0.8573 0.8237
vt 0.8284 0.8237
vt 0.8843 0.7786
vt 0.9112 0.7786
vt 0.8843 0.8083
vt 0.9112 0.8083
vt 0.8284 0.8237
vt 0.7996 0.8237
vt 0.8284 0.7839
vt 0.7996 0.7714
vt 0.8284 0.7714
vt 0.7990 0.7972
vt 0.7990 0.8495
vt 0.7720 0.7972
vt 0.7720 0.8495
vt 0.7993 0.4869
vt 0.6182 0.4869
vt 0.7993 0.0210
vt 0.6182 0.2411
vt 0.6182 0.1643
vt 0.6182 0.0443
vt 0.6182 0.0210
vt 0.8284 0.8332
vt 0.8554 0.8332
vt 0.8284 0.8630
vt 0.8554 0.8630
vt 0.6763 0.8927
vt 0.6917 0.8927
vt 0.6763 0.9224
vt 0.6917 0.9224
vt 0.7996 0.8630
vt 0.8265 0.8630
vt 0.7996 0.8927
vt 0.8265 0.8927
vt 0.7225 0.9224
vt 0.7071 0.9224
vt 0.7225 0.8927
vt 0.7071 0.8927
vt 0.8612 0.8927
vt 0.8612 0.9205
vt 0.8458 0.8927
vt 0.8458 0.9205
vt 0.7033 0.8629
vt 0.7302 0.8629
vt 0.7033 0.8927
vt 0.7302 0.8927
vt 0.9074 0.9225
vt 0.8958 0.9225
vt 0.9074 0.8927
vt 0.8958 0.8927
vt 0.6763 0.8629
vt 0.7033 0.8629
vt 0.6763 0.8927
vt 0.7033 0.8927
vt 0.8727 0.9225
vt 0.8612 0.9225
vt 0.8727 0.8927
vt 0.8612 0.8927
vt 0.7814 0.7858
vt 0.7814 0.8135
vt 0.7698 0.7858
vt 0.7698 0.8135
vt 0.8804 0.8630
vt 0.9074 0.8630
vt 0.8804 0.8927
vt 0.9074 0.8927
vt 0.7996 0.8630
vt 0.7996 0.8237
vt 0.8284 0.8630
vt 0.8284 0.8237
vt 0.7649 0.8899
vt 0.7919 0.8899
vt 0.7649 0.9197
vt 0.7919 0.9197
vt 0.7358 0.8178
vt 0.7358 0.7785
vt 0.7647 0.8178
vt 0.7647 0.7785
vt 0.7062 0.8558
vt 0.6792 0.8558
vt 0.7062 0.8166
vt 0.6792 0.8166
vt 0.7993 0.0210
vt 0.9803 0.0210
vt 0.9803 0.0443
vt 0.9803 0.4869
vt 0.7993 0.4869
vt 0.9803 0.2411
vt 0.9803 0.1643
vt 0.8535 0.8927
vt 0.8265 0.8927
vt 0.8535 0.8630
vt 0.8265 0.8630
vt 0.7012 0.8227
vt 0.6858 0.8227
vt 0.7012 0.7930
vt 0.6858 0.7930
vt 0.8843 0.7489
vt 0.9112 0.7489
vt 0.8843 0.7786
vt 0.9112 0.7786
vt 0.7380 0.9224
vt 0.7225 0.9224
vt 0.7380 0.8927
vt 0.7225 0.8927
vt 0.8304 0.9205
vt 0.8304 0.8927
vt 0.8458 0.9205
vt 0.8458 0.8927
vt 0.8824 0.8630
vt 0.8554 0.8630
vt 0.8824 0.8332
vt 0.8554 0.8332
vt 0.8958 0.9225
vt 0.8843 0.9225
vt 0.8958 0.8927
vt 0.8843 0.8927
vt 0.6773 0.7799
vt 0.7042 0.7799
vt 0.6773 0.8096
vt 0.7042 0.8096
vt 0.8843 0.9225
vt 0.8727 0.9225
vt 0.8843 0.8927
vt 0.8727 0.8927
vt 0.9189 0.8630
vt 0.9189 0.8907
vt 0.9074 0.8630
vt 0.9074 0.8907
vt 0.8804 0.8927
vt 0.8535 0.8927
vt 0.8804 0.8630
vt 0.8535 0.8630
vt 0.7380 0.8899
vt 0.7380 0.8507
vt 0.7668 0.8899
vt 0.7668 0.8507
vt 0.8573 0.7976
vt 0.8843 0.7976
vt 0.8573 0.8274
vt 0.8843 0.8274
vt 0.7668 0.8899
vt 0.7668 0.8507
vt 0.7957 0.8899
vt 0.7957 0.8507
vt 0.8573 0.7584
vt 0.8843 0.7584
vt 0.8573 0.7976
vt 0.8843 0.7976
vn 1.0000 0.0000 0.0000
vn -1.0000 0.0000 0.0000
vn 0.0000 1.0000 0.0000
vn 0.0000 -1.0000 0.0000
vn 0.0000 0.0000 -1.0000
vn 0.0000 -0.0000 1.0000
usemtl None
s off
f 1/1/1 2/2/1 3/3/1
f 4/4/1 5/5/1 6/6/1
f 7/7/1 4/4/1 8/8/1
f 9/9/1 10/10/1 11/11/1
f 12/12/1 13/13/1 14/14/1
f 11/11/1 10/10/1 15/15/1
f 15/15/1 10/10/1 16/16/1
f 15/15/1 16/16/1 17/17/1
f 17/17/1 16/16/1 18/18/1
f 17/17/1 18/18/1 19/19/1
f 19/19/1 18/18/1 20/20/1
f 19/19/1 20/20/1 13/13/1
f 21/21/1 22/22/1 23/23/1
f 23/23/1 22/22/1 24/24/1
f 23/23/1 24/24/1 3/3/1
f 25/25/1 26/26/1 27/27/1
f 27/27/1 26/26/1 21/21/1
f 27/27/1 21/21/1 28/28/1
f 28/28/1 21/21/1 23/23/1
f 28/28/1 23/23/1 29/29/1
f 29/29/1 23/23/1 14/14/1
f 11/11/1 12/12/1 9/9/1
f 9/9/1 12/12/1 14/14/1
f 9/9/1 14/14/1 1/1/1
f 3/3/1 2/2/1 23/23/1
f 23/23/1 2/2/1 30/30/1
f 23/23/1 30/30/1 14/14/1
f 14/14/1 30/30/1 31/31/1
f 14/14/1 31/31/1 1/1/1
f 32/32/1 33/33/1 3/3/1
f 1/1/1 3/3/1 9/9/1
f 9/9/1 3/3/1 33/33/1
f 9/9/1 33/33/1 34/34/1
f 24/24/1 7/7/1 3/3/1
f 3/3/1 7/7/1 8/8/1
f 3/3/1 8/8/1 32/32/1
f 32/32/1 8/8/1 35/35/1
f 32/32/1 35/35/1 36/36/1
f 14/14/1 37/37/1 38/38/1
f 39/39/1 40/40/1 38/38/1
f 38/38/1 40/40/1 26/26/1
f 38/38/1 26/26/1 14/14/1
f 14/14/1 26/26/1 25/25/1
f 14/14/1 25/25/1 29/29/1
f 13/13/1 20/20/1 14/14/1
f 14/14/1 20/20/1 41/41/1
f 14/14/1 41/41/1 37/37/1
f 42/42/1 10/10/1 43/43/1
f 43/43/1 10/10/1 9/9/1
f 43/43/1 9/9/1 35/35/1
f 35/35/1 9/9/1 34/34/1
f 35/35/1 34/34/1 36/36/1
f 44/44/1 45/45/1 35/35/1
f 35/35/1 45/45/1 46/46/1
f 35/35/1 46/46/1 43/43/1
f 20/20/1 47/47/1 48/48/1
f 47/47/1 20/20/1 49/49/1
f 49/49/1 20/20/1 18/18/1
f 49/49/1 18/18/1 50/50/1
f 50/50/1 18/18/1 51/51/1
f 50/50/1 51/51/1 48/48/1
f 48/48/1 51/51/1 40/40/1
f 48/48/1 40/40/1 20/20/1
f 20/20/1 40/40/1 39/39/1
f 20/20/1 39/39/1 41/41/1
f 44/44/1 52/52/1 53/53/1
f 52/52/1 44/44/1 54/54/1
f 54/54/1 44/44/1 55/55/1
f 54/54/1 55/55/1 56/56/1
f 56/56/1 55/55/1 16/16/1
f 56/56/1 16/16/1 53/53/1
f 53/53/1 16/16/1 10/10/1
f 53/53/1 10/10/1 44/44/1
f 44/44/1 10/10/1 42/42/1
f 44/44/1 42/42/1 45/45/1
f 4/4/1 6/6/1 8/8/1
f 8/8/1 6/6/1 57/57/1
f 8/8/1 57/57/1 35/35/1
f 35/35/1 57/57/1 58/58/1
f 35/35/1 58/58/1 44/44/1
f 44/44/1 58/58/1 59/59/1
f 44/44/1 59/59/1 55/55/1
f 60/60/2 61/61/2 62/62/2
f 62/62/2 61/61/2 63/63/2
f 55/64/3 59/65/3 61/66/3
f 60/67/3 51/68/3 18/69/3
f 60/67/3 18/69/3 61/66/3
f 61/66/3 18/69/3 16/70/3
f 61/66/3 16/70/3 55/64/3
f 5/71/4 4/72/4 63/73/4
f 63/73/4 4/72/4 7/74/4
f 63/73/4 7/74/4 62/75/4
f 62/75/4 7/74/4 24/76/4
f 62/75/4 24/76/4 22/77/4
f 64/78/5 65/79/5 30/80/5
f 30/80/5 65/79/5 31/81/5
f 65/82/4 66/83/4 31/84/4
f 31/84/4 66/83/4 1/85/4
f 66/86/6 67/87/6 1/88/6
f 1/88/6 67/87/6 2/89/6
f 67/90/3 64/91/3 2/92/3
f 2/92/3 64/91/3 30/93/3
f 66/94/1 65/95/1 67/96/1
f 67/96/1 65/95/1 64/97/1
f 68/98/3 69/99/3 12/100/3
f 12/100/3 69/99/3 13/101/3
f 13/102/5 69/103/5 19/104/5
f 19/104/5 69/103/5 70/105/5
f 19/104/5 70/105/5 17/106/5
f 70/107/4 71/108/4 17/109/4
f 17/109/4 71/108/4 15/110/4
f 15/111/6 71/112/6 11/113/6
f 11/113/6 71/112/6 68/114/6
f 11/113/6 68/114/6 12/115/6
f 68/116/1 71/117/1 69/118/1
f 69/118/1 71/117/1 70/119/1
f 61/120/5 59/121/5 63/122/5
f 63/122/5 59/121/5 58/123/5
f 58/123/5 57/124/5 63/122/5
f 63/122/5 57/124/5 6/125/5
f 63/122/5 6/125/5 5/126/5
f 72/127/3 73/128/3 32/129/3
f 32/129/3 73/128/3 33/130/3
f 73/131/5 74/132/5 33/133/5
f 33/133/5 74/132/5 34/134/5
f 74/135/4 75/136/4 34/137/4
f 34/137/4 75/136/4 36/138/4
f 75/139/6 72/140/6 36/141/6
f 36/141/6 72/140/6 32/142/6
f 75/143/1 74/144/1 72/145/1
f 72/145/1 74/144/1 73/146/1
f 76/147/3 77/148/3 46/149/3
f 46/149/3 77/148/3 43/150/3
f 77/151/5 78/152/5 43/153/5
f 43/153/5 78/152/5 42/154/5
f 78/155/4 79/156/4 42/157/4
f 42/157/4 79/156/4 45/158/4
f 79/159/6 76/160/6 45/161/6
f 45/161/6 76/160/6 46/162/6
f 79/163/1 78/164/1 76/165/1
f 76/165/1 78/164/1 77/166/1
f 80/167/3 81/168/3 52/169/3
f 52/169/3 81/168/3 53/170/3
f 81/171/5 82/172/5 53/173/5
f 53/173/5 82/172/5 56/174/5
f 82/175/4 83/176/4 56/177/4
f 56/177/4 83/176/4 54/178/4
f 83/179/6 80/180/6 54/181/6
f 54/181/6 80/180/6 52/182/6
f 83/183/1 82/184/1 80/185/1
f 80/185/1 82/184/1 81/186/1
f 62/187/6 22/188/6 21/189/6
f 51/190/6 60/191/6 40/192/6
f 40/192/6 60/191/6 62/187/6
f 40/192/6 62/187/6 26/193/6
f 26/193/6 62/187/6 21/189/6
f 84/194/3 85/195/3 28/196/3
f 28/196/3 85/195/3 27/197/3
f 85/198/5 86/199/5 27/200/5
f 27/200/5 86/199/5 25/201/5
f 86/202/4 87/203/4 25/204/4
f 25/204/4 87/203/4 29/205/4
f 87/206/6 84/207/6 29/208/6
f 29/208/6 84/207/6 28/209/6
f 87/210/1 86/211/1 84/212/1
f 84/212/1 86/211/1 85/213/1
f 88/214/3 89/215/3 37/216/3
f 37/216/3 89/215/3 38/217/3
f 89/218/5 90/219/5 38/220/5
f 38/220/5 90/219/5 39/221/5
f 90/222/4 91/223/4 39/224/4
f 39/224/4 91/223/4 41/225/4
f 91/226/6 88/227/6 41/228/6
f 41/228/6 88/227/6 37/229/6
f 91/230/1 90/231/1 88/232/1
f 88/232/1 90/231/1 89/233/1
f 92/234/3 93/235/3 47/236/3
f 47/236/3 93/235/3 48/237/3
f 93/238/5 94/239/5 48/240/5
f 48/240/5 94/239/5 50/241/5
f 94/242/4 95/243/4 50/244/4
f 50/244/4 95/243/4 49/245/4
f 95/246/6 92/247/6 49/248/6
f 49/248/6 92/247/6 47/249/6
f 95/250/1 94/251/1 92/252/1
f 92/252/1 94/251/1 93/253/1
