# Blender v2.78 (sub 0) OBJ File: ''
# www.blender.org
mtllib door.mtl
o untitled
v -0.500000 50.000000 -9.999983
v -0.500000 50.000015 -39.999985
v -0.500000 47.000000 -9.999985
v -0.500000 47.000015 -39.999985
v -0.500000 47.000000 0.000016
v -0.500000 -47.000000 -0.000016
v -0.500000 -47.000000 -10.000015
v -0.500000 47.000015 -49.999985
v -0.500000 -50.000000 -10.000017
v -0.500000 -49.999985 -50.000015
v 0.500000 -49.999985 -50.000015
v 0.500000 47.000015 -49.999985
v 0.500000 47.000015 -39.999985
v 0.500000 47.000000 0.000016
v 0.500000 -47.000000 -0.000016
v 0.500000 47.000000 -9.999985
v 0.500000 -47.000000 -10.000015
v 0.500000 50.000015 -39.999985
v 0.500000 50.000000 -9.999983
v 0.500000 -50.000000 -10.000017
v 0.500000 50.000015 -49.999985
v 0.500000 47.000015 -49.999985
v -0.501070 50.000015 -49.999985
v -0.501070 47.000015 -49.999985
v -1.000000 -50.000000 -0.000016
v -1.000000 -50.000000 -10.000017
v 1.000000 -50.000000 -0.000016
v 1.000000 -50.000000 -10.000017
v -1.000000 -47.000000 -0.000016
v -1.000000 50.000000 0.000016
v -1.000000 47.000000 0.000016
v 1.000000 50.000000 0.000016
v 1.000000 -47.000000 -0.000016
v 1.000000 47.000000 0.000016
v -1.000000 50.000000 -9.999983
v -0.501070 50.000015 -39.999985
v 1.000000 50.000000 -9.999983
v 0.500000 50.000015 -39.999985
v 1.000000 -47.000000 -10.000015
v -1.000000 -47.000000 -10.000015
v 1.000000 47.000000 -9.999985
v -1.000000 47.000000 -9.999985
v 0.500000 47.000015 -39.999985
v -0.501070 47.000015 -39.999985
vt 0.3534 0.8860
vt 0.0948 0.8860
vt 0.3534 0.8596
vt 0.0948 0.8596
vt 0.4397 0.8596
vt 0.4397 0.0351
vt 0.3534 0.0351
vt 0.0086 0.8596
vt 0.3534 0.0088
vt 0.0086 0.0088
vt 0.8879 0.0088
vt 0.8879 0.8596
vt 0.8017 0.8596
vt 0.4569 0.8596
vt 0.4569 0.0351
vt 0.5431 0.8596
vt 0.5431 0.0351
vt 0.8017 0.8860
vt 0.5431 0.8860
vt 0.5431 0.0088
vt 0.9397 0.8860
vt 0.9397 0.8596
vt 0.9569 0.8860
vt 0.9440 0.8596
vt 0.9569 0.8596
vt 0.9526 0.8596
vt 0.9526 0.0088
vt 0.9440 0.0088
vt 0.9914 0.4649
vt 0.9914 0.5526
vt 0.9741 0.4649
vt 0.9871 0.5526
vt 0.9741 0.5526
vt 0.9784 0.5526
vt 0.9784 0.9035
vt 0.9871 0.9035
vt 0.9181 0.8596
vt 0.9224 0.8596
vt 0.9224 0.8860
vt 0.9224 0.0088
vt 0.9224 0.0351
vt 0.9052 0.0088
vt 0.9181 0.0351
vt 0.9052 0.8860
vt 0.9052 0.8596
vt 0.9095 0.8596
vt 0.9052 0.0351
vt 0.9095 0.0351
vt 0.9871 0.3596
vt 0.9914 0.3596
vt 0.9914 0.4474
vt 0.9914 0.0088
vt 0.9914 0.0965
vt 0.9741 0.0088
vt 0.9871 0.0965
vt 0.9741 0.4474
vt 0.9741 0.3596
vt 0.9784 0.3596
vt 0.9741 0.0965
vt 0.9784 0.0965
vt 0.0086 0.9035
vt 0.0345 0.9035
vt 0.0086 0.9912
vt 0.0345 0.9912
vt 0.4009 0.9298
vt 0.3966 0.9298
vt 0.4009 0.9035
vt 0.3966 0.9035
vt 0.2672 0.9035
vt 0.2716 0.9035
vt 0.2672 0.9912
vt 0.2716 0.9912
vt 0.2888 0.9912
vt 0.2888 0.9035
vt 0.2931 0.9912
vt 0.2931 0.9035
vt 0.4224 0.9035
vt 0.4224 0.9298
vt 0.4181 0.9035
vt 0.4181 0.9298
vt 0.0517 0.9035
vt 0.0776 0.9035
vt 0.0517 0.9912
vt 0.0776 0.9912
vt 0.1379 0.9035
vt 0.1638 0.9035
vt 0.1379 0.9912
vt 0.1638 0.9912
vt 0.3578 0.9912
vt 0.3534 0.9912
vt 0.3578 0.9035
vt 0.3534 0.9035
vt 0.5043 0.9035
vt 0.5086 0.9035
vt 0.5043 0.9298
vt 0.5086 0.9298
vt 0.4828 0.9298
vt 0.4828 0.9035
vt 0.4871 0.9298
vt 0.4871 0.9035
vt 0.3362 0.9035
vt 0.3362 0.9912
vt 0.3319 0.9035
vt 0.3319 0.9912
vt 0.0948 0.9035
vt 0.1207 0.9035
vt 0.0948 0.9912
vt 0.1207 0.9912
vt 0.2241 0.9035
vt 0.2500 0.9035
vt 0.2241 0.9912
vt 0.2500 0.9912
vt 0.4440 0.9298
vt 0.4397 0.9298
vt 0.4440 0.9035
vt 0.4397 0.9035
vt 0.3147 0.9912
vt 0.3103 0.9912
vt 0.3147 0.9035
vt 0.3103 0.9035
vt 0.3793 0.9035
vt 0.3793 0.9912
vt 0.3750 0.9035
vt 0.3750 0.9912
vt 0.4655 0.9035
vt 0.4655 0.9298
vt 0.4612 0.9035
vt 0.4612 0.9298
vt 0.1810 0.9035
vt 0.2069 0.9035
vt 0.1810 0.9912
vt 0.2069 0.9912
vn -1.0000 0.0000 0.0000
vn 1.0000 0.0000 0.0000
vn 0.0000 0.0000 -1.0000
vn 0.0000 0.0000 1.0000
vn 0.0000 -1.0000 0.0000
vn 0.0000 1.0000 0.0000
vn 0.0000 1.0000 -0.0004
vn 0.0000 1.0000 -0.0001
vn 0.0000 0.0000 0.0000
vn 0.0000 0.8944 0.4472
usemtl wire_088199225
s 1
f 1/1/1 2/2/1 3/3/1
f 3/3/1 2/2/1 4/4/1
f 5/5/1 3/3/1 6/6/1
f 6/6/1 3/3/1 4/4/1
f 6/6/1 4/4/1 7/7/1
f 7/7/1 4/4/1 8/8/1
f 7/7/1 8/8/1 9/9/1
f 9/9/1 8/8/1 10/10/1
f 11/11/2 12/12/2 13/13/2
f 14/14/2 15/15/2 16/16/2
f 16/16/2 15/15/2 17/17/2
f 18/18/2 19/19/2 13/13/2
f 13/13/2 19/19/2 16/16/2
f 13/13/2 16/16/2 11/11/2
f 11/11/2 16/16/2 17/17/2
f 11/11/2 17/17/2 20/20/2
f 21/21/3 22/22/4 23/23/3
f 23/23/3 22/22/4 12/24/3
f 24/25/3 23/23/3 8/26/3
f 8/26/3 23/23/3 12/24/3
f 8/26/3 12/24/3 10/27/3
f 10/27/3 12/24/3 11/28/3
f 25/29/5 26/30/5 27/31/5
f 27/31/5 26/30/5 9/32/5
f 28/33/5 27/31/5 20/34/5
f 20/34/5 27/31/5 9/32/5
f 20/34/5 9/32/5 11/35/5
f 11/35/5 9/32/5 10/36/5
f 6/37/4 29/38/4 25/39/4
f 30/40/4 31/41/4 32/42/4
f 32/42/4 31/41/4 5/43/4
f 27/44/4 33/45/4 15/46/4
f 34/47/4 32/42/4 14/48/4
f 14/48/4 32/42/4 5/43/4
f 14/48/4 5/43/4 15/46/4
f 15/46/4 5/43/4 6/37/4
f 15/46/4 6/37/4 27/44/4
f 27/44/4 6/37/4 25/39/4
f 1/49/6 35/50/6 30/51/6
f 23/52/6 36/53/7 21/54/6
f 21/54/6 36/53/7 2/55/8
f 32/56/6 37/57/6 19/58/6
f 38/59/9 21/54/6 18/60/10
f 18/60/10 21/54/6 2/55/8
f 18/60/10 2/55/8 19/58/6
f 19/58/6 2/55/8 1/49/6
f 19/58/6 1/49/6 32/56/6
f 32/56/6 1/49/6 30/51/6
f 28/61/2 39/62/2 27/63/2
f 27/63/2 39/62/2 33/64/2
f 17/65/3 39/66/3 20/67/3
f 20/67/3 39/66/3 28/68/3
f 15/69/6 33/70/6 17/71/6
f 17/71/6 33/70/6 39/72/6
f 40/73/6 29/74/6 7/75/6
f 7/75/6 29/74/6 6/76/6
f 26/77/3 40/78/3 9/79/3
f 9/79/3 40/78/3 7/80/3
f 40/81/1 26/82/1 29/83/1
f 29/83/1 26/82/1 25/84/1
f 41/85/2 37/86/2 34/87/2
f 34/87/2 37/86/2 32/88/2
f 16/89/5 41/90/5 14/91/5
f 14/91/5 41/90/5 34/92/5
f 19/93/3 37/94/3 16/95/3
f 16/95/3 37/94/3 41/96/3
f 42/97/3 35/98/3 3/99/3
f 3/99/3 35/98/3 1/100/3
f 31/101/5 42/102/5 5/103/5
f 5/103/5 42/102/5 3/104/5
f 35/105/1 42/106/1 30/107/1
f 30/107/1 42/106/1 31/108/1
f 38/109/2 43/110/2 21/111/2
f 21/111/2 43/110/2 22/112/2
f 13/113/4 43/114/4 18/115/4
f 18/115/4 43/114/4 38/116/4
f 12/117/9 22/118/9 13/119/9
f 13/119/9 22/118/9 43/120/9
f 44/121/5 24/122/5 4/123/5
f 4/123/5 24/122/5 8/124/5
f 36/125/4 44/126/4 2/127/4
f 2/127/4 44/126/4 4/128/4
f 44/129/1 36/130/1 24/131/1
f 24/131/1 36/130/1 23/132/1
